<svg width="17" height="17" viewBox="0 0 17 17" fill="none" xmlns="http://www.w3.org/2000/svg">
<path d="M3.89829 0.645508H3.61258C1.71901 0.645508 0.184006 2.18051 0.184006 4.07408V4.35979C0.184006 4.83479 0.567934 5.21694 1.04115 5.21694C1.51436 5.21694 1.89829 4.83479 1.89829 4.35979V4.07408C1.89829 3.12729 2.66579 2.35979 3.61258 2.35979H3.89829C4.37329 2.35979 4.75543 1.97587 4.75543 1.50265C4.75543 1.02908 4.37329 0.645508 3.89829 0.645508ZM1.04115 10.9312C1.51436 10.9312 1.89829 10.5491 1.89829 10.0741V7.21694C1.89829 6.74194 1.51436 6.35979 1.04115 6.35979C0.567934 6.35979 0.184006 6.74194 0.184006 7.21694V10.0741C0.184006 10.5491 0.567934 10.9312 1.04115 10.9312ZM9.61258 14.9312H6.75543C6.28043 14.9312 5.89829 15.3134 5.89829 15.7884C5.89829 16.2634 6.28043 16.6455 6.75543 16.6455H9.61258C10.0858 16.6455 10.4697 16.2616 10.4697 15.7884C10.4697 15.3134 10.0876 14.9312 9.61258 14.9312ZM3.89829 14.9312H3.61258C2.66579 14.9312 1.89829 14.1637 1.89829 13.2169V12.9312C1.89829 12.4562 1.51436 12.0741 1.04115 12.0741C0.567934 12.0741 0.184006 12.4562 0.184006 12.9312V13.2169C0.184006 15.1105 1.71901 16.6455 3.61258 16.6455H3.89829C4.37329 16.6455 4.75543 16.2634 4.75543 15.7884C4.75543 15.3134 4.37329 14.9312 3.89829 14.9312ZM15.3269 6.35979C14.8536 6.35979 14.4697 6.74337 14.4697 7.21694V10.0741C14.4697 10.5473 14.8536 10.9312 15.3269 10.9312C15.8001 10.9312 16.184 10.5491 16.184 10.0741V7.21694C16.184 6.74194 15.8019 6.35979 15.3269 6.35979ZM9.61258 0.645508H6.75543C6.28043 0.645508 5.89829 1.02908 5.89829 1.50265C5.89829 1.97587 6.28043 2.35979 6.75543 2.35979H9.61258C10.0876 2.35979 10.4697 1.97587 10.4697 1.50265C10.4697 1.02908 10.0876 0.645508 9.61258 0.645508ZM12.7554 0.645508H12.4697C11.9947 0.645508 11.6126 1.02908 11.6126 1.50265C11.6126 1.97587 11.9965 2.35979 12.4697 2.35979H12.7554C13.7022 2.35979 14.4697 3.12729 14.4697 4.07408V4.35979C14.4697 4.83479 14.8519 5.21694 15.3269 5.21694C15.8019 5.21694 16.184 4.83479 16.184 4.35979V4.07408C16.184 2.18051 14.6483 0.645508 12.7554 0.645508ZM15.3269 12.0741C14.8536 12.0741 14.4697 12.4577 14.4697 12.9312V13.2169C14.4697 14.1637 13.7022 14.9312 12.7554 14.9312H12.4697C11.9965 14.9312 11.6126 15.3148 11.6126 15.7884C11.6126 16.2616 11.9965 16.6455 12.4697 16.6455H12.7554C14.649 16.6455 16.184 15.1105 16.184 13.2169V12.9312C16.184 12.4562 15.8019 12.0741 15.3269 12.0741Z" fill="white"/>
</svg>
